<?xml version="1.0" standalone="no"?><!DOCTYPE svg PUBLIC "-//W3C//DTD SVG 1.1//EN" "http://www.w3.org/Graphics/SVG/1.1/DTD/svg11.dtd"><svg t="1543488691754" class="icon" style="" viewBox="0 0 1024 1024" version="1.1" xmlns="http://www.w3.org/2000/svg" p-id="1907" xmlns:xlink="http://www.w3.org/1999/xlink" width="200" height="200"><defs><style type="text/css"></style></defs><path d="M538.6432 291.736l-101.2064 0 0 252.9936 50.6032 0 0-101.1888 50.6032 0 0-0.0544 5.1088 0c50.024 0 69.1888-34.7456 69.1888-75.8768C612.9408 326.4832 588.6144 291.736 538.6432 291.736zM563.9184 367.6096c0 19.72-3.8944 25.312-25.2752 25.312l-50.6032 0 0-50.6224 55.6592 0C565.1296 342.3008 563.9184 347.8928 563.9184 367.6096zM512 0C287.9184 0 106.264 181.6512 106.264 405.736c0 183.7888 122.2 339.0368 289.7824 388.9248C432.7872 805.5984 512 1024 512 1024s79.2128-218.4016 115.952-229.3392c167.584-49.888 289.784-205.136 289.784-388.9248C917.736 181.6512 736.0816 0 512 0zM512 772.8304c-202.7408 0-367.0944-164.3552-367.0944-367.0944C144.9056 202.9936 309.2592 38.6416 512 38.6416s367.0944 164.352 367.0944 367.0944C879.0944 608.4736 714.7408 772.8304 512 772.8304zM512 77.2816c-181.3984 0-328.4528 147.0544-328.4528 328.4544 0 181.3984 147.0544 328.4512 328.4528 328.4512s328.4528-147.0528 328.4528-328.4512C840.4528 224.3344 693.3984 77.2816 512 77.2816zM512 637.5824c-128.0624 0-231.8496-103.8224-231.8496-231.8496 0-128.0768 103.7872-231.8496 231.8496-231.8496 128.0592 0 231.8496 103.7712 231.8496 231.8496C743.8496 533.7616 640.0592 637.5824 512 637.5824z" fill="#03ae53" p-id="1908"></path></svg>