<?xml version="1.0" standalone="no"?><!DOCTYPE svg PUBLIC "-//W3C//DTD SVG 1.1//EN" "http://www.w3.org/Graphics/SVG/1.1/DTD/svg11.dtd"><svg t="1543550179838" class="icon" style="" viewBox="0 0 1024 1024" version="1.1" xmlns="http://www.w3.org/2000/svg" p-id="1960" xmlns:xlink="http://www.w3.org/1999/xlink" width="200" height="200"><defs><style type="text/css"></style></defs><path d="M512 495.9566093m-20.57879591 0a20.57879591 20.57879591 0 1 0 41.15759182 0 20.57879591 20.57879591 0 1 0-41.15759182 0Z" fill="#454545" p-id="1961"></path><path d="M512 495.9566093m-6.05258703 0a6.05258703 6.05258703 0 1 0 12.10517406 0 6.05258703 6.05258703 0 1 0-12.10517406 0Z" fill="#FFEE1F" p-id="1962"></path><path d="M512 543.69941581m-6.05258703 1e-8a6.05258703 6.05258703 0 1 0 12.10517406 0 6.05258703 6.05258703 0 1 0-12.10517406 0Z" fill="#828282" p-id="1963"></path><path d="M509.09475824 542.53731911a2.90524176 1.42841055 0 1 0 5.81048353 0 2.90524176 1.42841055 0 1 0-5.81048353 0Z" fill="#454545" p-id="1964"></path><path d="M512.01614023 542.93275482h-0.04035058c-0.87964266 0-1.59788298-0.71824034-1.59788299-1.59788301V513.48490135c0-0.87964266 0.71824034-1.59788298 1.59788299-1.59788297h0.04035058c0.87964266 0 1.59788298 0.71824034 1.59788298 1.59788297v27.85804058c0 0.87157254-0.71824034 1.58981285-1.59788299 1.58981289z" fill="#454545" p-id="1965"></path></svg>