<?xml version="1.0" standalone="no"?><!DOCTYPE svg PUBLIC "-//W3C//DTD SVG 1.1//EN" "http://www.w3.org/Graphics/SVG/1.1/DTD/svg11.dtd"><svg t="1543488254281" class="icon" style="" viewBox="0 0 1024 1024" version="1.1" xmlns="http://www.w3.org/2000/svg" p-id="2869" xmlns:xlink="http://www.w3.org/1999/xlink" width="200" height="200"><defs><style type="text/css"></style></defs><path d="M502.784 0c236.544 0 428.032 190.464 427.52 425.472 0 108.544-40.96 207.36-108.544 282.112-2.048 3.072-3.584 6.144-6.144 8.192L542.72 999.424c-2.048 4.608-5.12 8.704-8.192 12.288-12.8 12.8-32.256 15.36-48.64 8.192-5.12-2.048-10.24-5.12-14.336-9.216-1.536-1.536-3.072-3.584-4.608-5.632l-278.016-289.28c-2.56-3.072-5.12-6.144-7.168-9.728-66.56-74.752-107.52-173.056-107.52-281.088C74.752 190.464 266.24 0 502.784 0zM356.864 213.504V640h74.752V476.16h113.664c30.208 0 54.784-4.096 74.24-12.8 18.944-8.704 33.792-19.456 44.032-32.768 10.24-12.8 17.408-27.136 20.992-42.496 3.584-13.824 5.632-28.16 5.632-42.496 0-13.312-2.048-27.648-5.632-43.008-4.096-15.872-11.264-30.208-20.992-43.008-10.24-13.312-25.088-24.064-44.032-32.768-18.944-8.704-44.032-13.312-74.24-13.312H356.864z m74.752 201.728V274.432h110.592c9.728 0 19.456 1.024 28.16 3.072 8.704 2.048 16.384 5.632 23.04 11.264 6.656 5.632 12.288 12.8 16.384 22.016 4.096 9.216 6.144 20.48 6.144 34.816 0 13.312-2.048 24.576-6.656 33.792-4.608 8.704-10.752 15.872-17.92 21.504-7.168 5.12-15.36 9.216-24.064 11.776-8.704 2.56-17.408 3.584-25.6 3.584H431.616z" fill="#03ae53" p-id="2870"></path></svg>