<?xml version="1.0" standalone="no"?><!DOCTYPE svg PUBLIC "-//W3C//DTD SVG 1.1//EN" "http://www.w3.org/Graphics/SVG/1.1/DTD/svg11.dtd"><svg t="1543831157491" class="icon" style="" viewBox="0 0 1024 1024" version="1.1" xmlns="http://www.w3.org/2000/svg" p-id="1847" xmlns:xlink="http://www.w3.org/1999/xlink" width="200" height="200"><defs><style type="text/css"></style></defs><path d="M175.542 513.979c0 185.707 150.545 336.252 336.252 336.252s336.252-150.545 336.252-336.252c0-185.71-150.545-336.252-336.252-336.252-185.707 0-336.252 150.545-336.252 336.252v0zM511.794 13.926c-276.175 0-500.052 223.877-500.052 500.052 0 276.169 223.877 500.052 500.052 500.052 276.169 0 500.052-223.884 500.052-500.052 0.002-276.175-223.884-500.052-500.052-500.052v0zM511.794 957.645c-245.028 0-443.666-198.638-443.666-443.666s198.638-443.666 443.666-443.666 443.666 198.638 443.666 443.666c0 245.028-198.638 443.666-443.666 443.666v0zM511.794 957.645z" fill="#508cee" p-id="1848"></path></svg>