<?xml version="1.0" standalone="no"?><!DOCTYPE svg PUBLIC "-//W3C//DTD SVG 1.1//EN" "http://www.w3.org/Graphics/SVG/1.1/DTD/svg11.dtd"><svg t="1546767280012" class="icon" style="" viewBox="0 0 1032 1024" version="1.1" xmlns="http://www.w3.org/2000/svg" p-id="2504" xmlns:xlink="http://www.w3.org/1999/xlink" width="201.5625" height="200"><defs><style type="text/css"></style></defs><path d="M583.32637719 698.37653563A180.42685969 180.42685969 0 1 0 435.37635219 753.70743969h19.64647968a179.6249625 179.6249625 0 0 0 98.23240125-29.670195l205.68662063 259.01278125a20.04742875 20.04742875 0 1 0 31.27398937-24.85881188z m-143.53959094 15.23604656a140.73295031 140.73295031 0 0 1 14.8350975-280.66400438h15.23604562a140.73295031 140.73295031 0 0 1-30.07114312 280.66400438z" fill="#999999" p-id="2505"></path><path d="M939.7696625 112.18971594H304.66711531C265.77510313 32 242.1191375 32 232.49637125 32H90.15962656A58.13754375 58.13754375 0 0 0 32.02208281 90.13754375v724.11313125A58.13754375 58.13754375 0 0 0 90.15962656 873.99201313h445.45386938a20.04742875 20.04742875 0 0 0 0-40.09485844H90.15962656a18.04268625 18.04268625 0 0 1-18.04268625-19.64647969V312.66400437h885.6954075v501.18572157a18.04268625 18.04268625 0 0 1-18.04268531 18.04268625h-125.09595656a20.04742875 20.04742875 0 0 0 0 40.0948575h125.49690469a58.13754375 58.13754375 0 0 0 58.13754375-58.13754375v-641.51772375A58.13754375 58.13754375 0 0 0 939.7696625 112.18971594zM72.11694031 272.56914688V90.13754375A18.04268625 18.04268625 0 0 1 90.15962656 72.0948575H232.49637125a259.01278125 259.01278125 0 0 1 40.09485844 70.16600156 20.04742875 20.04742875 0 0 0 19.24553156 10.02371438h647.93290125a18.04268625 18.04268625 0 0 1 18.04268531 18.04268625V272.56914688z" fill="#999999" p-id="2506"></path></svg>