<?xml version="1.0" standalone="no"?><!DOCTYPE svg PUBLIC "-//W3C//DTD SVG 1.1//EN" "http://www.w3.org/Graphics/SVG/1.1/DTD/svg11.dtd"><svg t="1546766718393" class="icon" style="" fill="#999999" viewBox="0 0 1024 1024" version="1.1" xmlns="http://www.w3.org/2000/svg" p-id="17627" xmlns:xlink="http://www.w3.org/1999/xlink" width="200" height="200"><defs><style type="text/css"></style></defs><path d="M801.878021 1024l-707.019563 0c-34.565401 0-70.701956-36.136555-70.701956-70.701956l0-864.135021c0-34.565401 36.136555-70.701956 70.701956-70.701956l565.61565 0c12.569237 0 23.567319 10.998082 23.567319 23.567319s-10.998082 23.567319-23.567319 23.567319l-565.61565 0C87.002685 65.595704 71.291139 81.30725 71.291139 89.163023l0 864.135021c0 7.855773 15.711546 23.567319 23.567319 23.567319l707.019563 0c7.855773 0 23.567319-15.711546 23.567319-23.567319l0-628.461834c0-12.569237 10.998082-23.567319 23.567319-23.567319s23.567319 10.998082 23.567319 23.567319l0 628.461834C872.579977 987.863445 836.443422 1024 801.878021 1024z" p-id="17628"></path><path d="M691.8972 458.38435l-487.057921 0c-12.569237 0-23.567319-10.998082-23.567319-23.567319s10.998082-23.567319 23.567319-23.567319l487.057921 0c12.569237 0 23.567319 10.998082 23.567319 23.567319S704.466437 458.38435 691.8972 458.38435z" p-id="17629"></path><path d="M691.8972 662.634446l-487.057921 0c-12.569237 0-23.567319-10.998082-23.567319-23.567319s10.998082-23.567319 23.567319-23.567319l487.057921 0c12.569237 0 23.567319 10.998082 23.567319 23.567319S704.466437 662.634446 691.8972 662.634446z" p-id="17630"></path><path d="M691.8972 851.172996l-487.057921 0c-12.569237 0-23.567319-10.998082-23.567319-23.567319s10.998082-23.567319 23.567319-23.567319l487.057921 0c12.569237 0 23.567319 10.998082 23.567319 23.567319S704.466437 851.172996 691.8972 851.172996z" p-id="17631"></path><path d="M685.612582 271.416954 204.839279 271.416954c-12.569237 0-23.567319-10.998082-23.567319-23.567319s10.998082-23.567319 23.567319-23.567319l482.344457 0c12.569237 0 23.567319 10.998082 23.567319 23.567319S699.752973 271.416954 685.612582 271.416954z" p-id="17632"></path><path d="M839.585731 279.272727l-130.40583-119.407748c-9.426928-9.426928-17.2827-20.42501-21.996164-31.423092-4.713464-10.998082-7.855773-23.567319-7.855773-36.136555 0-12.569237 3.142309-23.567319 7.855773-36.136555 4.713464-12.569237 12.569237-21.996164 23.567319-31.423092 9.426928-7.855773 18.853855-14.140391 29.851937-17.2827 21.996164-7.855773 45.563483-7.855773 67.559647 0 10.998082 4.713464 21.996164 9.426928 29.851937 18.853855l1.571155 1.571155L841.156885 24.745685c9.426928-7.855773 20.42501-14.140391 31.423092-18.853855 21.996164-7.855773 45.563483-7.855773 67.559647 0 10.998082 3.142309 20.42501 9.426928 29.851937 17.2827 10.998082 9.426928 18.853855 20.42501 23.567319 31.423092l0 0C998.272344 68.738013 999.843498 79.736095 999.843498 92.305332c0 12.569237-3.142309 23.567319-7.855773 36.136555-4.713464 12.569237-12.569237 21.996164-23.567319 31.423092L839.585731 279.272727zM772.026084 48.313003c-6.284618 0-12.569237 1.571155-17.2827 3.142309-6.284618 1.571155-10.998082 4.713464-15.711546 9.426928C734.318374 64.024549 731.176064 68.738013 728.033755 75.022631c-3.142309 6.284618-3.142309 10.998082-3.142309 17.2827 0 6.284618 1.571155 10.998082 3.142309 17.2827 1.571155 4.713464 6.284618 9.426928 10.998082 14.140391l98.982739 91.126966 98.982739-91.126966c4.713464-4.713464 9.426928-9.426928 10.998082-15.711546 3.142309-6.284618 3.142309-10.998082 3.142309-17.2827 0-6.284618-1.571155-10.998082-3.142309-17.2827l0 0c-1.571155-4.713464-6.284618-10.998082-10.998082-14.140391-4.713464-4.713464-9.426928-6.284618-14.140391-9.426928-10.998082-4.713464-25.138473-4.713464-36.136555 0-6.284618 1.571155-10.998082 4.713464-15.711546 9.426928l-32.994246 31.423092-34.565401-31.423092c-4.713464-4.713464-9.426928-6.284618-14.140391-9.426928C784.59532 49.884158 778.310702 48.313003 772.026084 48.313003z" p-id="17633"></path></svg>