<?xml version="1.0" standalone="no"?><!DOCTYPE svg PUBLIC "-//W3C//DTD SVG 1.1//EN" "http://www.w3.org/Graphics/SVG/1.1/DTD/svg11.dtd"><svg t="1546766713372" class="icon" style="" viewBox="0 0 1024 1024" version="1.1" xmlns="http://www.w3.org/2000/svg" p-id="17498" xmlns:xlink="http://www.w3.org/1999/xlink" width="200" height="200"><defs><style type="text/css"></style></defs><path d="M744.96 296.96L350.72 33.28l-66.56 7.68-46.08 69.12-30.72 33.28-40.96 20.48L99.84 307.2z" fill="#FED766" p-id="17499"></path><path d="M145.92 678.4l-5.12-69.12-66.56-66.56-53.76-38.4 7.68-143.36 53.335-46.341L243.2 320h271.36l325.12 2.56h104.96l48.64 15.36 12.8 97.28-10.24 71.68-46.08 23.04L896 570.88l-17.92 51.2 7.68 87.04 58.88 43.52 53.76 25.6v102.4l-20.48 76.8-76.8 17.92-312.32 7.68-340.48-5.12-174.08-10.24-43.52-53.76L20.48 793.6 43.52 768l92.16-64z" fill="#FC8059" p-id="17500"></path><path d="M1019.853 749.752h-20.306c-57.836 0-104.888-47.052-104.888-104.888 0-57.83 47.052-104.878 104.888-104.878h20.306V385.905c0-49.024-39.885-88.91-88.909-88.91h-836.9c-49.024 0-88.909 39.886-88.909 88.91V539.98h20.306c57.836 0 104.883 47.047 104.883 104.878 0 57.835-47.047 104.888-104.883 104.888H5.131v154.071c0 49.024 39.884 88.909 88.908 88.909h836.905c49.024 0 88.909-39.885 88.909-88.909V749.752zM979.24 903.818c0 26.634-21.663 48.302-48.297 48.302h-836.9c-26.629 0-48.297-21.662-48.297-48.302V788.966l2.166-0.338c70.134-10.91 123.023-72.719 123.023-143.77 0-71.04-52.89-132.848-123.028-143.764l-2.166-0.338V385.905c0-26.63 21.663-48.297 48.297-48.297h836.905c26.63 0 48.297 21.662 48.297 48.297v114.851l-2.166 0.338C906.941 512.01 854.052 573.82 854.052 644.86c0 71.05 52.89 132.859 123.023 143.77l2.166 0.337v114.852z" fill="#4C4C4C" p-id="17501"></path><path d="M633.462 642.924a22.84 22.84 0 0 1-18.171-8.991L512.384 499.139a22.866 22.866 0 1 1 36.352-27.75l84.127 110.192 78.556-109.875a22.866 22.866 0 0 1 37.202 26.598l-96.553 135.05a22.86 22.86 0 0 1-18.606 9.57z" fill="#4C4C4C" p-id="17502"></path><path d="M751.61 667.73H524.207a22.871 22.871 0 0 1 0-45.737h227.405a22.871 22.871 0 1 1 0 45.737z m0 75.56H524.207a22.871 22.871 0 0 1 0-45.736h227.405a22.866 22.866 0 1 1 0 45.737z" fill="#4C4C4C" p-id="17503"></path><path d="M633.462 827.136a22.86 22.86 0 0 1-22.866-22.866V620.058a22.866 22.866 0 1 1 45.737 0V804.27a22.871 22.871 0 0 1-22.871 22.866z m-364.59-426.107h40.617v65.28h-40.617z m0 140.795h40.617v65.275h-40.617z m0 140.795h40.617v65.28h-40.617z m0 140.8h40.617v65.275h-40.617z m-63.55-645.397c5.258 0 10.48 0.866 15.524 2.576l395.08 134.026h190.162L383.145 25.513a88.284 88.284 0 0 0-50.038-15.483 88.986 88.986 0 0 0-73.533 38.707l-60.063 88.848-1.229 0.097a88.806 88.806 0 0 0-77.148 60.088L81.49 314.62h42.88l35.22-103.803a48.282 48.282 0 0 1 45.732-32.794zM293.14 71.603a48.333 48.333 0 0 1 39.906-20.976c9.738 0 19.138 2.908 27.192 8.407l365.763 250.045-482.699-163.753 49.838-73.723z" fill="#4C4C4C" p-id="17504"></path></svg>