<svg id="图层_1" data-name="图层 1" xmlns="http://www.w3.org/2000/svg" viewBox="0 0 300 300"><defs><style>.cls-1{fill:#dedede;}.cls-2{fill:none;}</style></defs><title>blank_not_find</title><path class="cls-1" d="M247.19,234.6c0,7.68-6.5,13.9-14.49,13.9H51.7L77,133.75a14.19,14.19,0,0,1,14.45-13.91H258a14.19,14.19,0,0,1,14.46,13.91ZM82.25,108.17H244.9V94.88c0-7.48-6.48-13.56-14.45-13.56H143.7V69c0-7.47-6.47-13.54-14.45-13.54H56.95C49,55.5,42.5,61.57,42.5,69V230.12L67.79,121.73c0-7.48,6.47-13.56,14.46-13.56Zm0,0"/><rect class="cls-2" width="300" height="300"/></svg>