<?xml version="1.0" standalone="no"?><!DOCTYPE svg PUBLIC "-//W3C//DTD SVG 1.1//EN" "http://www.w3.org/Graphics/SVG/1.1/DTD/svg11.dtd"><svg t="1551860272521" class="icon" style="" viewBox="0 0 1024 1024" version="1.1" xmlns="http://www.w3.org/2000/svg" p-id="3096" xmlns:xlink="http://www.w3.org/1999/xlink" width="200" height="200"><defs><style type="text/css"></style></defs><path d="M978 724h-71.6c34-63.2 53.2-135.2 53.2-212 0-247.6-200.4-448-448-448S64 264.4 64 512s200.4 448 448 448c75.2 0 146-18.4 208-51.2V980c-63.6 28.4-134 44-208 44C229.2 1024 0 794.8 0 512S229.2 0 512 0s512 229.2 512 512c0 75.6-16.4 147.6-46 212z" p-id="3097"></path><path d="M1022.4 920.8c0.4 2.4 0.4 4.8-0.4 8.8-0.4 3.2-1.2 6.8-2.8 10-1.2 3.2-3.2 6.4-4.8 9.2s-4 4.4-6.4 6c-2.4 1.2-4.4 2-6 2-2 0-3.6-0.4-6-1.2-2-0.4-4.4-0.8-7.2-2-2.8-0.4-6-0.4-9.2-0.4-3.2 0.4-6 0.8-9.2 2-3.2 0.8-5.6 2.8-7.6 4.8-4.4 4.8-7.2 10.4-8 16.8-0.8 6.4 0 12.4 2.8 17.6 2 4 2 7.6-0.8 11.6-1.2 1.2-3.2 3.2-5.6 4.8-2.8 2-5.6 3.2-8 4.4-3.2 1.2-6.4 2.4-9.6 3.2-3.2 0.8-6.4 1.2-8.4 1.2s-3.2-0.4-4.8-2c-1.2-1.2-2.8-2.8-3.2-4.4h-0.4c-2.4-6-6-11.2-10.8-15.6-4.8-4.4-11.2-6.4-18-6.4-6.8 0-12.8 2.4-18 6.4-5.6 4.4-9.2 9.6-11.2 15.6-0.8 2.4-2.4 4-4.4 4.8-2 0.8-4 2-6.4 2-2.8 0-6-0.4-9.2-1.2-3.6-0.8-6.8-2.4-10.4-3.6-3.2-1.2-6.4-3.2-9.2-4.8s-4.4-4-6-6c-0.8-1.2-1.2-3.2-2-4.8 0-2 0.4-4.4 2.4-7.6 2.4-4.4 3.2-9.6 2.4-15.6-0.4-6-3.2-10.8-7.2-16-2.8-2.8-6-4.8-10-6-4-0.8-7.6-1.2-10.8-0.8-4 0-8 0.8-12.8 2.4-2.8 0.8-5.6 0.4-8-0.4-2-1.2-4-3.2-6-6s-3.6-6.4-5.2-10c-1.2-3.2-2.8-6.8-3.2-10.4-0.8-3.6-0.8-6.4-0.4-8.8 0.4-4 2.8-6.8 6-8 6-2.4 10.8-6.4 16-11.2 4.4-5.6 6.8-11.2 6.8-18s-2.4-12.8-6.8-17.6-10-8.8-16-10.8c-2-0.4-3.2-2-4.4-4s-2-5.2-2-7.6c0-2.8 0.4-5.6 1.2-8.8 0.8-3.2 2-6.4 3.2-9.2 1.2-2.8 2.8-5.6 4.4-8 2-2.4 3.6-4 5.6-5.6 1.2-0.8 3.2-1.2 4.4-1.2 1.2 0 3.2 0.4 4.8 1.2 6 2.4 11.6 3.2 18 2.4 6.4-0.8 11.6-3.6 16.8-8 2.4-2.4 4-4.8 4.8-8.8 0.8-3.2 2-6.8 2-10 0.4-3.2 0.4-6.4 0-9.2s-0.4-4.4-0.8-6c-0.4-1.2-0.8-2.8-0.8-4-0.4-1.2 0-2.8 0.4-4 0.8-2.8 3.2-4.8 6-7.2 3.2-1.6 6.4-3.2 10-4.8s6.8-2.4 10.4-3.2c3.2-0.4 5.6-0.8 7.6-0.8 2.8 0 4.4 0.8 6 2.4 1.2 2 2.4 3.2 3.2 4.8 2.4 5.6 5.6 10 10.4 14 4.8 4 10.4 6 17.2 6 6.8 0 12.8-2 18-6 5.6-3.6 9.2-8.8 10.8-14.4 0.8-1.2 2-3.2 3.6-4.8 2-1.2 3.2-2 5.2-2 2.8 0 6 0.4 9.2 1.2s6.4 2 9.6 3.2 6 3.2 8.4 5.6c2.8 2.4 4.4 4.4 6.4 6.8 0.8 1.2 1.2 3.2 0.8 4.8-0.4 2-0.8 3.2-1.2 4-2.8 5.6-3.2 11.6-2.4 17.6 0.8 6.4 3.6 11.6 8.4 16.4 4.4 4.4 10.4 7.2 17.2 7.6 6.8 0.4 13.2-0.4 18.8-3.2 1.2-0.8 3.6-1.2 6-1.2s4 0.8 6 2.8c2.8 2.8 5.6 6.8 7.6 12.4 2.4 5.6 3.6 11.2 4.4 16.8 0.4 3.2 0 6-2 7.6-1.2 2-3.2 3.2-4.4 3.6-6 2.4-11.2 6-15.2 11.2-4 5.6-6.4 11.2-6.4 18 0 6.8 2 12.4 5.6 17.2s8 8.8 14 10.4c1.2 0.8 2.8 1.2 3.6 2.4 1.6 2.4 2.8 4.8 3.6 7.6z m-135.2 25.6c8.4 0 16.8-2 24.8-4.8 8-3.2 14.4-7.6 20.4-13.6 6-6 10.4-12.8 13.6-20.4s4.8-16 4.8-24.4-2-16.8-4.8-24.4-7.6-14.4-13.6-20c-6-6-12.8-10.4-20.4-13.6-7.6-3.2-16-4.8-24.8-4.8-8.4 0-16.8 2-24.4 4.8s-14.4 7.6-20 13.6c-6 6-10.4 12.4-13.6 20s-4.8 16-4.8 24.4 2 16.8 4.8 24.4 7.6 14.4 13.6 20.4c6 6 12.4 10.4 20 13.6 7.6 3.6 16 4.8 24.4 4.8z" p-id="3098"></path><path d="M872 886c0 6.4 3.6 12.4 8.8 15.6 5.6 3.2 12.4 3.2 18 0s8.8-9.2 8.8-15.6c0-10-8-18-18-18s-17.6 8-17.6 18z" p-id="3099"></path><path d="M298.4 214h217.2c124 0 186.4 52.4 186.4 157.6 0 106-62.8 159.2-188 159.2H382.8V788H298.4V214z m84.4 72v172.8h126.4c37.6 0 64.8-7.2 82-20 17.2-13.6 30-36 30-66.8s-13.2-52.4-30.8-65.6c-17.2-13.6-44.8-20-81.2-20H382.8z" p-id="3100"></path><path d="M532 720c11.2 0 20 8.8 20 20v36c0 11.2-8.8 20-20 20s-20-8.8-20-20v-36c0-11.2 8.8-20 20-20zM696 720c11.2 0 20 8.8 20 20v36c0 11.2-8.8 20-20 20s-20-8.8-20-20v-36c0-11.2 8.8-20 20-20zM562.4 600c-1.6 0-3.2 0.8-3.6 2.4l-24 53.6h154.4l-24-53.6c-0.8-1.6-2-2.4-3.6-2.4h-99.2z m0-40h99.2c17.2 0 33.2 10.4 40 26l49.2 110h-277.6l48.8-110c7.2-15.6 23.2-26 40.4-26z" p-id="3101"></path><path d="M508 692v28h212v-28h-212z m0-40h212c22 0 40 18 40 40v28c0 22-18 40-40 40h-212c-22 0-40-18-40-40v-28c0-22 18-40 40-40z" p-id="3102"></path></svg>