<?xml version="1.0" standalone="no"?><!DOCTYPE svg PUBLIC "-//W3C//DTD SVG 1.1//EN" "http://www.w3.org/Graphics/SVG/1.1/DTD/svg11.dtd"><svg t="1543388061243" class="icon" style="" viewBox="0 0 1024 1024" version="1.1" xmlns="http://www.w3.org/2000/svg" p-id="2283" xmlns:xlink="http://www.w3.org/1999/xlink" width="200" height="200"><defs><style type="text/css"></style></defs><path d="M511.154749 0.016373c-282.291295 0-511.134283 228.842988-511.134283 511.134283s228.842988 511.134283 511.134283 511.134283 511.134283-228.842988 511.134283-511.134283S793.446044 0.016373 511.154749 0.016373zM738.668463 625.702622c-0.023536 6.695492-5.482875 12.163017-12.193717 12.136411l-182.111664-0.714268-0.343831 124.855636v23.805172c0 6.718005-5.493108 12.223393-12.268418 12.272512l-45.896306 0.331551c-6.741541 0.049119-12.268418-5.367241-12.268418-12.098549v-23.809266l0.343831-124.848472-181.90598 0.082887c-6.745634 0.00307-12.120039-5.449106-12.096503-12.178367l0.156566-45.580104c0.022513-6.695492 5.476735-12.186554 12.180414-12.189624l181.905979-0.082888-0.024559-90.035595-181.882444-0.544399c-6.745634-0.020466-12.137435-5.476735-12.137434-12.1886v-45.459355c0-6.678096 5.405103-12.170181 12.071943-12.193717l132.430148-0.454348-82.748632-102.181217c-4.27742-5.281283-3.831258-13.33061 0.955768-18.025538l28.180829-27.638478c4.78805-4.695952 12.283768-4.435009 16.742313 0.581238l120.989585 136.125307L630.167307 259.545244c4.502547-5.047969 11.923564-5.205559 16.638958-0.421602l27.751041 28.158317c4.715395 4.783956 5.125741 12.928451 0.918929 18.190291l-81.734536 102.233406 131.818211-0.268107c6.813173-0.014326 12.347213 5.421476 12.422938 12.140505l0.509606 45.512567c0.074701 6.685259-5.298679 12.163017-12.002358 12.158924l-181.90905-0.109494 0.024559 90.035596 182.111665 0.714268c6.753821 0.026606 12.133342 5.502317 12.109805 12.231579l-0.158612 45.581128z" fill="#fa8b8b" p-id="2284"></path></svg>