<?xml version="1.0" standalone="no"?><!DOCTYPE svg PUBLIC "-//W3C//DTD SVG 1.1//EN" "http://www.w3.org/Graphics/SVG/1.1/DTD/svg11.dtd"><svg t="1545551188630" class="icon" style="" viewBox="0 0 1024 1024" version="1.1" xmlns="http://www.w3.org/2000/svg" p-id="1961" xmlns:xlink="http://www.w3.org/1999/xlink" width="200" height="200"><defs><style type="text/css"></style></defs><path d="M507.42613332 134.07573332m-99.94239998 2e-8a1.5616 1.5616 0 1 0 199.88479998 0 1.5616 1.5616 0 1 0-199.88479998 0ZM574.53226667 278.25493334L444.48426669 278.25493334c-43.89546668 0-83.35360001 15.9744-111.4112 41.50613334l0 184.45653332 0 49.90293334 0 23.41546665 97.75786665 0 21.02613334 302.76266669L571.392 880.29866668l20.34346666-302.76266667 99.19146665 0L690.92693337 566.74986666 690.92693337 499.43893333 690.92693337 324.60799999C662.66453334 296.27733333 621.09013334 278.25493334 574.53226667 278.25493334zM663.75680001 696.93440001l0 52.70186665c110.79680001 16.38400001 186.91413333 50.3808 186.91413333 89.63413334 0 55.50080001-151.62026668 100.352-338.60266668 100.352s-338.67093334-44.85119999-338.67093333-100.352c0-39.38986666 76.66346668-73.45493333 188.21120001-89.90720001l-2e-8-52.63359999c-185.20746668 20.0704-318.60053334 76.25386669-318.60053332 142.5408C42.87146668 922.41919999 252.99626666 989.86666667 512 989.86666667c259.00373334 0 469.06026668-67.44746667 469.06026668-150.52800001C981.06026668 773.18826667 848.2816 717.2096 663.75680001 696.93440001z" fill="#508cee" p-id="1962"></path></svg>