<?xml version="1.0" standalone="no"?><!DOCTYPE svg PUBLIC "-//W3C//DTD SVG 1.1//EN" "http://www.w3.org/Graphics/SVG/1.1/DTD/svg11.dtd"><svg t="1543550179838" class="icon" style="" viewBox="0 0 1024 1024" version="1.1" xmlns="http://www.w3.org/2000/svg" p-id="1960" xmlns:xlink="http://www.w3.org/1999/xlink" width="200" height="200"><defs><style type="text/css"></style></defs><path d="M512 299.94666667m-272 0a272 272 0 1 0 544 0 272 272 0 1 0-544 0Z" fill="#454545" p-id="1961"></path><path d="M512 299.94666667m-80 0a80 80 0 1 0 160 0 80 80 0 1 0-160 0Z" fill="#FFEE1F" p-id="1962"></path><path d="M512 930.98666667m-80 0a80 80 0 1 0 160 0 80 80 0 1 0-160 0Z" fill="#828282" p-id="1963"></path><path d="M473.6 915.62666667a38.4 18.88 0 1 0 76.8 0 38.4 18.88 0 1 0-76.8 0Z" fill="#454545" p-id="1964"></path><path d="M512.21333333 920.85333333h-0.53333333c-11.62666667 0-21.12-9.49333333-21.12-21.12V531.62666667c0-11.62666667 9.49333333-21.12 21.12-21.12h0.53333333c11.62666667 0 21.12 9.49333333 21.12 21.12v368.21333333c0 11.52-9.49333333 21.01333333-21.12 21.01333333z" fill="#454545" p-id="1965"></path></svg>