<?xml version="1.0" standalone="no"?><!DOCTYPE svg PUBLIC "-//W3C//DTD SVG 1.1//EN" "http://www.w3.org/Graphics/SVG/1.1/DTD/svg11.dtd"><svg t="1543387974941" class="icon" style="" viewBox="0 0 1024 1024" version="1.1" xmlns="http://www.w3.org/2000/svg" p-id="1554" xmlns:xlink="http://www.w3.org/1999/xlink" width="200" height="200"><defs><style type="text/css"></style></defs><path d="M587.52 587.52h-56.32V550.4h55.04v1.28c10.24 0 19.2-8.96 19.2-19.2s-8.96-19.2-19.2-19.2h-37.12l29.44-44.8c2.56-5.12 3.84-10.24 2.56-15.36-1.28-5.12-5.12-8.96-8.96-12.8-10.24-5.12-23.04 0-28.16 10.24L512 509.44l-32-58.88c-5.12-10.24-16.64-14.08-28.16-10.24-5.12 2.56-7.68 7.68-8.96 12.8-1.28 5.12 0 10.24 2.56 15.36l29.44 44.8h-37.12c-10.24 0-19.2 8.96-19.2 19.2s8.96 19.2 19.2 19.2h56.32V588.8h-56.32c-10.24 0-19.2 8.96-19.2 19.2s8.96 19.2 19.2 19.2h56.32l-1.28 34.56c0 11.52 8.96 20.48 19.2 20.48 5.12 0 10.24-1.28 14.08-5.12 3.84-3.84 5.12-8.96 5.12-14.08v-37.12h56.32c10.24 0 19.2-8.96 19.2-19.2s-8.96-19.2-19.2-19.2z" fill="#76b1ff" p-id="1555"></path><path d="M512 0C229.12 0 0 229.12 0 512s229.12 512 512 512 512-229.12 512-512S794.88 0 512 0zM326.4 291.84c3.84-3.84 8.96-5.12 12.8-5.12h336.64c5.12 0 10.24 1.28 12.8 5.12 3.84 3.84 5.12 7.68 3.84 12.8 0 5.12-1.28 8.96-5.12 12.8s-8.96 5.12-14.08 5.12h-332.8c-5.12 0-10.24-1.28-14.08-5.12s-5.12-7.68-5.12-12.8 1.28-10.24 5.12-12.8z m410.88 98.56v325.12c0 11.52-8.96 21.76-21.76 21.76H307.2c-5.12 0-10.24-1.28-15.36-5.12-3.84-3.84-6.4-8.96-6.4-14.08V390.4c-1.28-11.52 6.4-23.04 19.2-25.6H716.8c12.8 2.56 21.76 12.8 20.48 25.6z" fill="#76b1ff" p-id="1556"></path></svg>