<?xml version="1.0" encoding="utf-8"?>
<!-- Generator: Adobe Illustrator 15.0.0, SVG Export Plug-In . SVG Version: 6.00 Build 0)  -->
<!DOCTYPE svg PUBLIC "-//W3C//DTD SVG 1.1//EN" "http://www.w3.org/Graphics/SVG/1.1/DTD/svg11.dtd">
<svg version="1.1" id="图层_1" xmlns="http://www.w3.org/2000/svg" xmlns:xlink="http://www.w3.org/1999/xlink" x="0px" y="0px"
	 width="200px" height="200px" viewBox="0 0 200 200" enable-background="new 0 0 200 200" xml:space="preserve">
<path fill="#76B1FF" d="M114.75,114.75h-11v-7.25h10.75v0.25c2,0,3.75-1.75,3.75-3.75s-1.75-3.75-3.75-3.75h-7.25L113,91.5
	c0.5-1,0.75-2,0.5-3s-1-1.75-1.75-2.5c-2-1-4.5,0-5.5,2L100,99.5L93.75,88c-1-2-3.25-2.75-5.5-2c-1,0.5-1.5,1.5-1.75,2.5s0,2,0.5,3
	l5.75,8.75H85.5c-2,0-3.75,1.75-3.75,3.75s1.75,3.75,3.75,3.75h11V115h-11c-2,0-3.75,1.75-3.75,3.75s1.75,3.75,3.75,3.75h11
	l-0.25,6.75c0,2.25,1.75,4,3.75,4c1,0,2-0.25,2.75-1s1-1.75,1-2.75v-7.25h11c2,0,3.75-1.75,3.75-3.75S116.75,114.75,114.75,114.75z"
	/>
<path fill="#76B1FF" d="M100,0C44.75,0,0,44.75,0,100s44.75,100,100,100s100-44.75,100-100S155.25,0,100,0z M63.75,57
	c0.75-0.75,1.75-1,2.5-1H132c1,0,2,0.25,2.5,1c0.75,0.75,1,1.5,0.75,2.5c0,1-0.25,1.75-1,2.5s-1.75,1-2.75,1h-65c-1,0-2-0.25-2.75-1
	s-1-1.5-1-2.5S63,57.5,63.75,57z M144,76.25v63.5c0,2.25-1.75,4.25-4.25,4.25H60c-1,0-2-0.25-3-1c-0.75-0.75-1.25-1.75-1.25-2.75
	v-64c-0.25-2.25,1.25-4.5,3.75-5H140C142.5,71.75,144.25,73.75,144,76.25z"/>
<ellipse fill="#EC7C1D" cx="164" cy="34.029" rx="31" ry="29.75"/>
<linearGradient id="SVGID_1_" gradientUnits="userSpaceOnUse" x1="166.2813" y1="161.5" x2="187.5" y2="161.5" gradientTransform="matrix(1 0 0 -1 0 201)">
	<stop  offset="0.0056" style="stop-color:#CCCAC6"/>
	<stop  offset="0.2037" style="stop-color:#D5D3CE"/>
	<stop  offset="0.5329" style="stop-color:#EFEAE2"/>
	<stop  offset="0.5337" style="stop-color:#EFEAE2"/>
	<stop  offset="0.7051" style="stop-color:#F5F0E7"/>
	<stop  offset="1" style="stop-color:#F9F4EB"/>
</linearGradient>
<path fill="url(#SVGID_1_)" stroke="#FFFFFF" stroke-width="3" stroke-miterlimit="10" d="M166.58,39.5c-1.878,0,5.096,0,20.92,0"/>
<line fill="none" stroke="#000000" stroke-width="3" stroke-miterlimit="10" x1="423.5" y1="141.5" x2="423.5" y2="140.5"/>
<line fill="none" stroke="#FFFFFF" stroke-width="3" stroke-miterlimit="10" x1="176" y1="4.779" x2="176" y2="3.779"/>
<line fill="none" stroke="#FFFFFF" stroke-width="3" stroke-miterlimit="10" x1="181.5" y1="-13.082" x2="181.5" y2="-14.082"/>
<line fill="none" stroke="#FFFFFF" stroke-width="3" stroke-miterlimit="10" x1="164" y1="39.5" x2="164" y2="13.5"/>
</svg>
