<?xml version="1.0" standalone="no"?><!DOCTYPE svg PUBLIC "-//W3C//DTD SVG 1.1//EN" "http://www.w3.org/Graphics/SVG/1.1/DTD/svg11.dtd"><svg t="1543388023606" class="icon" style="" viewBox="0 0 1024 1024" version="1.1" xmlns="http://www.w3.org/2000/svg" p-id="2159" xmlns:xlink="http://www.w3.org/1999/xlink" width="200" height="200"><defs><style type="text/css"></style></defs><path d="M512 3.008c-281.216 0-509.184 227.968-509.184 509.184 0 281.216 227.968 509.184 509.184 509.184 281.216 0 509.184-227.968 509.184-509.184C1021.184 230.976 793.216 3.008 512 3.008zM747.296 768l-448 0c-26.496 0-48-21.504-48-48s21.504-48 48-48l448 0c26.496 0 48 21.504 48 48S773.824 768 747.296 768zM747.296 576l-448 0c-26.496 0-48-21.504-48-48s21.504-48 48-48l448 0c26.496 0 48 21.504 48 48S773.824 576 747.296 576zM747.296 384l-448 0c-26.496 0-48-21.504-48-48S272.8 288 299.296 288l448 0c26.496 0 48 21.504 48 48S773.824 384 747.296 384z" fill="#ffc075" p-id="2160"></path></svg>