<?xml version="1.0" standalone="no"?><!DOCTYPE svg PUBLIC "-//W3C//DTD SVG 1.1//EN" "http://www.w3.org/Graphics/SVG/1.1/DTD/svg11.dtd"><svg t="1543388009926" class="icon" style="" viewBox="0 0 1024 1024" version="1.1" xmlns="http://www.w3.org/2000/svg" p-id="2034" xmlns:xlink="http://www.w3.org/1999/xlink" width="200" height="200"><defs><style type="text/css"></style></defs><path d="M1029.81530851 512c0 286.02823111-231.78707741 517.81530851-517.81530851 517.81530851s-517.81530851-231.78707741-517.81530851-517.81530851c0-285.96350407 231.78707741-517.81530851 517.81530851-517.81530851s517.81530851 231.85180445 517.81530851 517.81530851" fill="#70c5db" p-id="2035"></path><path d="M820.81210482 750.58340295l-146.0886437-147.25372814c-1.68289963-1.68289963-3.62470741-3.04216519-5.37233408-4.40142962a243.37319481 243.37319481 0 0 0 39.09505593-132.62544668c0-134.50252629-108.15867221-243.63210297-241.69029518-243.63210184-133.46689593 0-241.62556814 109.12957667-241.62556928 243.63210184 0 134.63198037 108.22339925 243.63210297 241.62556928 243.63210296 48.60991261 0 93.78929778-14.62828259 131.65454222-39.41868998 1.42399261 1.81235371 2.65380295 3.68943445 4.33670258 5.37233408l146.0886437 147.25372814a50.61644629 50.61644629 0 0 0 71.97632853 0.06472704 51.91098482 51.91098482 0 0 0 0-72.6235978M466.69116075 632.90987406c-91.13549483 0-165.31253703-74.82431261-165.31253704-166.73652849 0-91.84748999 74.17704334-166.67180259 165.31253704-166.6718026 91.20022073 0 165.31253703 74.82431261 165.31253703 166.6718026 0 91.91221703-74.1123163 166.73652963-165.31253703 166.73652849" fill="#FFFFFF" p-id="2036"></path></svg>