<svg id="图层_1" data-name="图层 1" xmlns="http://www.w3.org/2000/svg" viewBox="0 0 64 64"><defs><style>.cls-1{fill:#ffc535;fill-rule:evenodd;}</style></defs><title>未标题-2</title><path class="cls-1" d="M33.43,23.9H29.61v5.73h3.82a2.87,2.87,0,0,0,0-5.73ZM32,0A23.56,23.56,0,0,0,8.6,23.74c0,6,3.26,13.56,6.92,17.75,0,0,4.11,5,8.34,10.22A77.91,77.91,0,0,1,32,64a97.18,97.18,0,0,1,8.16-12.42c6.42-8,8.15-10.11,8.15-10.11,3.84-4.22,7.13-11.56,7.13-17.75A23.56,23.56,0,0,0,32,0Zm-2.39,8.6v0l0,0Zm-3.14,6.9c1-1.42,2.19-2.94,3.14-4.2v.16l2.15-2.87h1.67l1,1.29-.07.1c1,1.37,2.68,3.55,4.12,5.51.94,1.28,1.06,1.7-.59,1.7H36L32.47,12.5l-3.53,4.72H27.06C25.41,17.22,25.53,16.8,26.47,15.52Zm7,17.93H29.61v5.73a1.91,1.91,0,0,1-3.82,0V22a1.9,1.9,0,0,1,1-1.65v-.26h6.69a6.69,6.69,0,1,1,0,13.37Z"/></svg>